<svg width="107" height="63" viewBox="0 0 107 63" fill="none" xmlns="http://www.w3.org/2000/svg">
<path fill-rule="evenodd" clip-rule="evenodd" d="M49.3993 0.458775C48.0536 1.20597 47.6375 2.37546 47.2752 6.42562C47.0105 9.38053 46.7968 10.1907 46.3408 9.96558C46.0155 9.80462 43.3426 9.5902 40.401 9.48863C35.2355 9.31045 35.0267 9.35084 34.2938 10.6718C33.5658 11.9838 33.2979 12.0397 27.7327 12.0397C22.5526 12.0397 21.9309 11.9322 21.9309 11.0341C21.9313 9.31045 20.2966 8.17897 17.8053 8.17897C15.7171 8.17897 15.3852 8.35953 14.4317 10.0131C13.8499 11.0216 12.9 13.0262 12.3211 14.4677C11.7421 15.9087 11.2096 17.0883 11.1383 17.0883C11.0667 17.0883 10.423 15.6847 9.70761 13.97C7.50171 8.68205 7.04041 8.17897 4.39805 8.17897C2.71451 8.17897 1.80576 8.49258 1.11036 9.31342L0.149097 10.4485L0.0289891 27.8744C-0.0369682 37.459 0.0135177 45.9092 0.140954 46.6522C0.609169 49.3761 1.77564 50.3496 4.57271 50.3496C6.5779 50.3496 7.40684 50.071 8.23701 49.1183C9.22352 47.9868 9.30983 47.5337 9.30983 43.4888V39.09L10.2764 39.7321C10.9775 40.1983 11.4799 40.1894 12.1085 39.6988C12.9554 39.0372 12.9741 39.1191 12.9741 43.455C12.9741 47.5824 13.0511 47.9762 14.0938 49.1748C15.053 50.2771 15.6242 50.4316 18.0822 50.2516C20.9244 50.0437 20.9562 50.058 21.5429 51.8291L22.1349 53.6163L27.6948 53.7814C33.0561 53.94 33.2812 53.8979 34.0056 52.5935C34.7221 51.3023 34.9729 51.2494 39.5085 51.4389C43.367 51.5999 44.5388 51.4448 45.7411 50.6121C48.0321 49.0263 48.3651 50.0199 47.7642 56.6479C47.5911 58.555 47.6628 60.1522 47.9567 60.954L48.4241 62.2286H67.9031C90.1776 62.2286 88.5307 62.6646 88.4541 56.7886C88.4297 54.8809 88.5213 53.3211 88.6577 53.3229C88.7945 53.3253 89.2077 54.0992 89.5754 55.043C89.9435 55.9868 91.1343 57.5216 92.2218 58.4541C93.9856 59.9663 94.5808 60.1498 97.7252 60.1498C100.996 60.1498 101.379 60.0191 103.018 58.3418C103.99 57.3469 105.243 55.3424 105.803 53.8872C106.679 51.6094 106.821 50.4951 106.821 45.8949C106.821 42.7464 106.595 39.7701 106.272 38.6535C105.797 37.0106 105.811 36.5764 106.374 35.4028C107.197 33.6898 107.21 29.5007 106.405 25.5473C105.577 21.4788 103.303 18.5898 100.187 17.646C98.0155 16.9885 96.2298 17.2332 92.7743 18.6634C91.8049 19.0649 91.7903 19.0358 92.469 18.0439C93.1847 16.9986 93.3622 14.716 93.2096 8.52524C93.0707 2.90883 92.6221 2.64036 83.8542 2.93496C77.2235 3.15829 76.8957 3.39825 76.8957 8.03048C76.8957 11.22 76.3664 10.8945 75.6722 7.27794C75.386 5.78534 74.7704 4.17513 74.3046 3.69878C73.091 2.45861 68.0367 2.51979 67.0774 3.7861C66.6801 4.31056 65.854 6.98809 65.2408 9.73631C64.6277 12.4851 64.0072 14.5283 63.8614 14.2777C63.4636 13.5911 62.7357 9.44646 62.4254 6.10013C61.9132 0.573407 60.6332 -0.762986 57.6964 1.16498C55.7421 2.44792 53.9161 2.37249 51.6528 0.915524C50.7762 0.351269 49.909 0.175459 49.3993 0.458775ZM51.9887 3.77778C53.0709 4.88372 56.3728 4.68772 58.4667 3.39349C59.3104 2.872 59.9219 2.78529 60.1666 3.15175C60.6608 3.89241 61.5615 12.2832 61.5989 16.4943L61.6278 19.761H59.0074H56.3867L56.0235 17.6822C55.5194 14.795 54.9877 14.1535 54.2719 15.5683C53.4288 17.2344 53.4503 28.8847 54.2992 30.4872C54.9038 31.6282 54.9161 31.6282 55.5207 30.4872C55.8566 29.8529 56.1314 28.7268 56.1314 27.9837C56.1314 26.2969 57.2323 25.4036 59.312 25.4036C61.5566 25.4036 62.0028 26.4115 61.6901 30.7765C61.2512 36.9019 59.2847 40.4401 55.9087 41.1784C52.1682 41.9968 49.3496 39.1316 48.1432 33.2847C47.3631 29.5036 47.3912 16.4088 48.1876 12.5796C48.521 10.9759 48.7959 8.81272 48.7983 7.77211C48.8089 3.33053 50.0409 1.78745 51.9887 3.77778ZM73.5282 5.95165C73.9838 6.80516 79.3386 37.2381 79.3386 38.9748C79.3386 40.4062 78.5809 40.8487 76.1498 40.8374C73.8132 40.8262 73.4093 40.4644 73.0527 38.0661C72.6981 35.6796 71.9518 34.769 70.5487 35.0126C69.434 35.2056 69.2259 35.5477 68.2614 38.7675C67.7651 40.4246 67.5579 40.5618 65.2998 40.7317C63.4832 40.8677 62.7572 40.6848 62.4165 40.0047C62.0651 39.3039 62.605 35.4016 64.784 22.8953C66.3364 13.9849 67.7956 6.36029 68.0261 5.95165C68.2728 5.5145 69.4092 5.20921 70.7886 5.20921C72.1802 5.20921 73.2925 5.51093 73.5282 5.95165ZM91.4682 10.0921C91.5973 15.0843 91.7243 14.8194 88.9065 15.4394C88.1296 15.6099 88.0828 16.1902 87.8886 28.0841L87.685 40.5494H85.0386H82.3922L82.1886 28.0841C81.9944 16.1902 81.9476 15.6099 81.1707 15.4394C78.4197 14.8342 78.5243 15.0356 78.5243 10.3457C78.5243 7.95624 78.6509 5.81623 78.806 5.59052C78.9607 5.36423 81.8466 5.25316 85.2185 5.34285L91.3493 5.50618L91.4682 10.0921ZM7.95119 14.7124C8.88355 16.8358 10.0085 19.2378 10.4515 20.0503L11.2568 21.5275L13.6423 16.0286L16.0277 10.5292L18.0634 10.6908L20.0991 10.8518L20.2074 28.0354C20.2913 41.3874 20.2005 45.3259 19.8003 45.6966C19.0043 46.4331 15.6389 46.278 15.0913 45.4792C14.7668 45.0058 14.6027 42.4251 14.6027 37.7928C14.6027 33.9571 14.4582 30.6886 14.2811 30.5294C14.1044 30.3696 13.4464 31.4233 12.8186 32.8702C12.1912 34.317 11.4201 35.5008 11.1053 35.5008C10.7906 35.5008 10.017 34.2921 9.38719 32.8155C8.75693 31.3384 8.11527 30.3138 7.96137 30.5389C7.80747 30.7634 7.68126 34.0563 7.68126 37.857C7.68126 42.4387 7.51677 45.0064 7.19269 45.4792C6.68172 46.2246 3.734 46.4521 2.62535 45.8314C2.0586 45.5142 1.98124 43.4194 1.98124 28.409C1.98124 19.0245 2.11194 11.1565 2.27154 10.9236C2.43114 10.6908 3.39281 10.5791 4.40904 10.6759C6.19681 10.8458 6.31081 10.9765 7.95119 14.7124ZM45.3421 16.4943V20.9489L44.1206 21.1117C41.5267 21.458 41.0084 21.8209 41.1424 23.1971C41.2421 24.221 41.5862 24.5566 42.692 24.7093C44.4826 24.9575 44.7175 25.5212 44.7252 29.591C44.7322 33.4059 44.2823 34.3129 42.3821 34.3129C41.1925 34.3129 41.0276 34.4905 41.1403 35.6493C41.2511 36.7831 41.5796 37.0308 43.3063 37.2826L45.3421 37.5796L45.4634 41.6422C45.5375 44.1262 45.3995 46.0304 45.108 46.5424C44.7517 47.169 43.5193 47.3798 40.2173 47.3798C36.2697 47.3798 35.7583 47.2587 35.3813 46.2311C34.7413 44.4861 34.8141 13.3808 35.4607 12.4376C35.8129 11.9238 37.3498 11.7563 40.6518 11.8734L45.3421 12.0397V16.4943ZM32.6917 15.0516C33.4759 16.1955 33.565 21.7579 32.8224 23.1834C32.515 23.7732 31.5875 24.2299 30.4813 24.3363C28.9655 24.4824 28.6492 24.7164 28.6492 25.6922C28.6492 26.4163 28.9639 26.9419 29.4635 27.0518C32.2699 27.6713 32.1555 27.4456 32.0256 32.1034L31.9063 36.3917L30.4145 36.5729C27.7555 36.896 27.9407 39.7719 30.6311 39.9323C32.741 40.0576 33.3313 41.0928 33.3313 44.6661C33.3313 49.6083 33.0817 49.8251 27.6264 49.6279L22.9492 49.4587L22.8409 32.6029C22.7643 20.6633 22.8677 15.5101 23.1963 14.9328C23.9039 13.6891 31.8253 13.7883 32.6917 15.0516ZM101.892 21.1444C103.573 22.5597 104.615 24.8441 105.02 28.0051C105.549 32.1396 105.316 32.531 102.321 32.531C99.9099 32.531 99.7051 32.4241 99.206 30.9048C98.5456 28.8948 97.4508 28.5058 96.8747 30.0762C96.1801 31.9697 96.7713 33.0032 98.9352 33.6803C101.743 34.5588 103.147 35.7401 104.083 38.0108C105.654 41.8198 105.558 48.7073 103.889 52.053C102.757 54.3213 99.8635 56.2891 97.66 56.2891C95.2314 56.2891 92.4124 54.2008 91.4132 51.6622C90.9625 50.5159 90.6222 48.4287 90.59 46.6136L90.535 43.5191H93.1762C95.6687 43.5191 95.8479 43.6124 96.3649 45.1875C97.1283 47.5111 98.6779 47.2301 98.6779 44.7676C98.6779 43.1586 98.5102 42.9798 96.106 42.0194C94.5824 41.4112 93.065 40.3367 92.3831 39.384C89.3763 35.1818 89.847 25.3739 93.2315 21.6938C95.3923 19.3447 99.4486 19.0875 101.892 21.1444ZM69.9958 23.4732C69.3611 26.8071 69.4417 27.1854 70.7886 27.1854C71.4603 27.1854 72.01 27.0364 72.01 26.8546C72.01 25.6162 71.0353 21.2459 70.7592 21.2459C70.5724 21.2459 70.2287 22.2485 69.9958 23.4732ZM86.3936 45.0385C86.8923 46.0773 86.8996 46.6528 86.4408 48.8772C86.063 50.7077 86.0161 52.078 86.284 53.4417C86.8549 56.3449 86.7523 58.4903 86.0231 58.8983C85.6688 59.0967 77.4466 59.2589 67.7517 59.2589C47.7153 59.2589 48.7906 59.5327 49.5951 54.6409C49.9302 52.603 49.9452 51.0184 49.6476 49.1344C49.1081 45.7191 49.1029 45.8391 49.8496 44.7492C50.4118 43.9296 52.6377 43.8161 68.1482 43.8161C85.5109 43.8161 85.8166 43.8363 86.3936 45.0385ZM53.6885 51.5375C53.6885 54.8375 53.8147 55.6952 54.2992 55.6952C54.7117 55.6952 54.9099 55.0929 54.9099 53.8408C54.9099 52.2591 54.9999 52.0952 55.5207 52.7254C55.9425 53.2362 56.1314 53.2588 56.1314 52.7979C56.1314 52.4314 56.3101 52.1314 56.5283 52.1314C56.7523 52.1314 56.8186 52.9083 56.681 53.9133C56.4709 55.4457 56.5577 55.6952 57.3019 55.6952C58.0946 55.6952 58.1671 55.3744 58.1671 51.8695C58.1671 47.5473 57.6207 46.4948 56.4856 48.6307C55.8435 49.8388 55.6697 49.919 55.3264 49.1617C55.1041 48.6717 54.9197 48.07 54.9161 47.8253C54.9128 47.5806 54.6351 47.3798 54.2992 47.3798C53.8147 47.3798 53.6885 48.2375 53.6885 51.5375ZM58.8458 47.776C58.6964 47.9934 58.5742 49.8643 58.5742 51.9337V55.6952H59.7957C61.0456 55.6952 61.5171 54.3528 60.5082 53.6656C60.101 53.3888 60.101 53.2499 60.5082 52.9731C60.7883 52.7824 61.0171 52.2698 61.0171 51.8345C61.0171 51.3991 60.7883 50.8865 60.5082 50.6959C60.101 50.4191 60.101 50.2801 60.5082 50.0033C60.7883 49.8127 61.0171 49.1445 61.0171 48.5184C61.0171 47.7213 60.7321 47.3798 60.0672 47.3798C59.5445 47.3798 58.9948 47.558 58.8458 47.776ZM61.8314 51.5375V55.6952H63.0528C63.8671 55.6952 64.2743 55.3982 64.2743 54.8042C64.2743 54.3142 63.9994 53.9133 63.6635 53.9133C62.9246 53.9133 62.8509 52.9315 63.5618 52.5543C63.9453 52.3506 63.9599 52.0103 63.6204 51.171C63.2706 50.3068 63.3073 49.9118 63.7845 49.4034C64.6049 48.5279 64.0609 47.3798 62.8252 47.3798C61.866 47.3798 61.8314 47.5253 61.8314 51.5375ZM64.6814 48.5677C64.6814 49.2211 64.8646 49.7556 65.0885 49.7556C65.3125 49.7556 65.4957 51.092 65.4957 52.7254C65.4957 55.299 65.6044 55.6952 66.31 55.6952C67.0111 55.6952 67.1243 55.299 67.1243 52.8442C67.1243 51.2762 67.3282 49.6956 67.5774 49.3321C68.2968 48.2826 67.6051 47.3798 66.0824 47.3798C64.953 47.3798 64.6814 47.6097 64.6814 48.5677ZM68.8343 48.0926C68.112 49.1462 68.2178 54.2358 68.9853 55.356C69.7426 56.4602 69.7967 56.4697 70.8154 55.6744C71.429 55.195 71.6028 54.4188 71.6028 52.1594C71.6028 50.564 71.4917 48.8362 71.3557 48.3195C71.0646 47.2123 69.5321 47.0745 68.8343 48.0926ZM72.4171 51.5375C72.4171 54.8375 72.5433 55.6952 73.0278 55.6952C73.3906 55.6952 73.6386 55.1499 73.6386 54.351C73.6386 53.5272 73.9928 52.78 74.5546 52.4207C75.6002 51.7519 75.9719 49.5097 75.2484 48.2381C74.9801 47.7659 74.233 47.3798 73.5889 47.3798H72.4171V51.5375ZM76.4548 47.6251C76.3615 47.76 76.3465 49.6309 76.4214 51.7828C76.522 54.6658 76.7097 55.6952 77.1339 55.6952C77.5756 55.6952 77.71 54.7258 77.71 51.5375C77.71 48.4685 77.5679 47.3798 77.1673 47.3798C76.8684 47.3798 76.548 47.4903 76.4548 47.6251ZM79.3671 49.6024C78.4294 54.6807 78.3822 55.6952 79.0841 55.6952C79.4481 55.6952 79.7457 55.4279 79.7457 55.1012C79.7457 54.7745 80.0205 54.5073 80.3564 54.5073C80.6923 54.5073 80.9672 54.7745 80.9672 55.1012C80.9672 55.4279 81.3336 55.6952 81.7814 55.6952C82.2293 55.6952 82.5892 55.6286 82.5815 55.5467C82.5737 55.4647 82.2346 53.6609 81.8279 51.5375C80.9346 46.8744 80.0055 46.1432 79.3671 49.6024ZM70.3814 51.8695C70.3814 53.1275 70.2165 53.8349 69.9743 53.6163C69.7503 53.4144 69.5671 52.4635 69.5671 51.5025C69.5671 50.5414 69.7503 49.7556 69.9743 49.7556C70.1982 49.7556 70.3814 50.7071 70.3814 51.8695ZM74.4528 50.3496C74.4528 50.6763 74.2696 50.9435 74.0457 50.9435C73.8218 50.9435 73.6386 50.6763 73.6386 50.3496C73.6386 50.0229 73.8218 49.7556 74.0457 49.7556C74.2696 49.7556 74.4528 50.0229 74.4528 50.3496ZM80.7636 52.1314C80.902 52.4581 80.821 52.7254 80.584 52.7254C80.3471 52.7254 80.1529 52.4581 80.1529 52.1314C80.1529 51.8048 80.2335 51.5375 80.3324 51.5375C80.4313 51.5375 80.6251 51.8048 80.7636 52.1314Z" fill="white"/>
</svg>
